<svg width="34" height="36" viewBox="0 0 34 36" fill="none" xmlns="http://www.w3.org/2000/svg">
<path d="M17.8484 34.6246C20.6204 33.4336 22.4224 31.0076 23.4924 28.6686C25.1654 25.0116 31.0744 23.4996 32.5424 22.4576C34.5804 21.0116 32.7084 18.0846 29.6784 18.5686C26.4134 19.0906 25.6254 20.5116 23.6574 21.3726C22.6534 21.8106 21.9444 21.6696 21.8104 19.8166C21.7124 18.4576 23.4664 7.77961 24.0004 2.85661C24.1834 1.17161 23.4814 0.211608 22.1254 0.030608C20.5894 -0.174392 19.7944 0.661608 19.4694 2.20061C18.6594 6.03261 17.3754 13.5446 16.8364 13.9686C13.9404 15.7856 10.0794 18.1626 6.62838 13.5456C6.62838 13.5456 4.97738 4.88461 4.72038 3.13661C4.27538 0.110608 0.18938 0.656608 0.52438 3.81161C0.83838 6.78361 1.81338 13.7966 0.95938 16.2876C0.20938 18.4766 -1.11462 25.9896 1.80238 30.5646C4.68038 35.0786 12.3624 36.9816 17.8484 34.6246Z" fill="#FFDC5D"/>
<path d="M7.53233 22.4706C8.39733 26.6266 13.4183 26.1596 13.1013 22.2006C12.8443 18.9806 11.8663 13.3546 11.5483 11.9486C10.9003 9.0716 5.88933 9.7106 6.29933 13.1076C6.56533 15.3126 6.85933 19.2356 7.53233 22.4706V22.4706Z" fill="#EF9645"/>
<path d="M8.4564 22.0476C9.2514 25.4966 12.8854 24.5376 12.7004 21.3136C12.5154 18.0886 11.7694 13.1746 11.5414 11.7506C11.0074 8.42462 6.7354 9.92162 7.0824 12.3716C7.4294 14.8216 7.8634 19.4756 8.4564 22.0476V22.0476Z" fill="#FFDC5D"/>
<path d="M11.4284 23.3766C11.4974 28.3196 17.0094 28.0506 17.4414 24.3506C17.8164 21.1426 17.0224 14.0706 16.9634 12.6286C16.8524 9.94559 11.9484 9.92659 11.7874 12.9736C11.6574 15.4456 11.3914 20.7376 11.4284 23.3766V23.3766Z" fill="#EF9645"/>
<path d="M12.3653 23.5226C12.2243 26.5966 16.3793 26.9446 16.6803 23.7296C16.9823 20.5146 16.9103 13.6406 16.8863 12.1996C16.8453 9.69162 12.6523 9.78062 12.5343 12.8606C12.4403 15.3326 12.4853 20.8856 12.3653 23.5226V23.5226Z" fill="#FFDC5D"/>
</svg>
