<svg width="54" height="54" viewBox="0 0 54 54" fill="none" xmlns="http://www.w3.org/2000/svg">
<path d="M54 27C54 41.9115 41.9115 54 27 54C12.0885 54 0 41.9115 0 27C0 12.0885 12.0885 0 27 0C41.9115 0 54 12.0885 54 27Z" fill="#FFCC4D"/>
<path d="M27 31.5C21.5655 31.5 17.9595 30.867 13.5 30C12.4815 29.8035 10.5 30 10.5 33C10.5 39 17.3925 46.5 27 46.5C36.606 46.5 43.5 39 43.5 33C43.5 30 41.5185 29.802 40.5 30C36.0405 30.867 32.4345 31.5 27 31.5Z" fill="#664500"/>
<path d="M13.5 33C13.5 33 18 34.5 27 34.5C36 34.5 40.5 33 40.5 33C40.5 33 37.5 39 27 39C16.5 39 13.5 33 13.5 33Z" fill="white"/>
<path d="M23.5231 6.61954L16.7101 7.82104L13.2001 1.44154C12.8131 0.738044 12.0181 0.361544 11.2321 0.499544C10.4416 0.639044 9.82665 1.26604 9.70365 2.05804L8.58615 9.25354L1.77315 10.455C0.970649 10.596 0.351149 11.2425 0.241649 12.051C0.132149 12.8595 0.558149 13.6455 1.29615 13.9965L7.40115 16.8945L6.27915 24.1125C6.15465 24.9165 6.56265 25.7085 7.28865 26.076C7.55715 26.211 7.84515 26.2755 8.13165 26.2755C8.62215 26.2755 9.10665 26.0835 9.46815 25.7175L14.7361 20.376L21.5131 23.5935C22.2481 23.9415 23.1241 23.778 23.6821 23.1855C24.2401 22.593 24.3511 21.7095 23.9596 20.997L20.4376 14.595L25.1852 9.78304C25.7582 9.20254 25.8887 8.31754 25.5107 7.59454C25.1297 6.87154 24.3211 6.48004 23.5231 6.61954ZM30.4772 6.61954L37.2902 7.82104L40.8002 1.44154C41.1872 0.738044 41.9822 0.361544 42.7682 0.499544C43.5571 0.639044 44.1722 1.26604 44.2952 2.05804L45.4127 9.25354L52.2257 10.455C53.0297 10.596 53.6492 11.241 53.7572 12.0495C53.8652 12.858 53.4406 13.644 52.7026 13.995L46.5977 16.893L47.7197 24.111C47.8442 24.915 47.4361 25.707 46.7102 26.0745C46.4417 26.2095 46.1536 26.274 45.8671 26.274C45.3766 26.274 44.8922 26.082 44.5307 25.716L39.2626 20.3745L32.4856 23.592C31.7507 23.94 30.8747 23.7765 30.3167 23.184C29.7587 22.5915 29.6476 21.708 30.0392 20.9955L33.5611 14.595L28.8137 9.78304C28.2407 9.20254 28.1102 8.31754 28.4882 7.59454C28.8707 6.87154 29.6792 6.48004 30.4772 6.61954Z" fill="#E95F28"/>
</svg>
